<mxfile host="app.diagrams.net" modified="2024-04-03T07:27:34.331Z" agent="Mozilla/5.0 (Windows NT 10.0; Win64; x64) AppleWebKit/537.36 (KHTML, like Gecko) Chrome/123.0.0.0 Safari/537.36" version="23.1.7" etag="PmnZU7fecog9KTIFBKLQ" type="github">
  <diagram name="Page-1" id="E_ESYo295hHm20IgXpZ7">
    <mxGraphModel>
      <root>
        <mxCell id="0" />
        <mxCell id="1" parent="0" />
      </root>
    </mxGraphModel>
  </diagram>
</mxfile>
